<?xml version="1.0" standalone="no"?>
<!DOCTYPE svg PUBLIC "-//W3C//DTD SVG 20010904//EN"
 "http://www.w3.org/TR/2001/REC-SVG-20010904/DTD/svg10.dtd">
<svg version="1.0" xmlns="http://www.w3.org/2000/svg"
 width="736.000000pt" height="736.000000pt" viewBox="0 0 736.000000 736.000000"
 preserveAspectRatio="xMidYMid meet">

<g transform="translate(0.000000,736.000000) scale(0.100000,-0.100000)"
fill="#000000" stroke="none">
<path d="M191 5689 c-120 -210 -132 -234 -122 -256 10 -22 211 -372 248 -430
13 -23 14 -23 276 -23 144 0 267 4 273 8 11 7 208 342 253 430 l20 39 -132
229 -133 229 -274 2 -275 3 -134 -231z"/>
<path d="M1970 5689 l-134 -232 32 -61 c18 -34 78 -140 135 -236 l102 -175
264 -3 c182 -2 268 1 277 9 7 6 24 30 37 52 13 23 69 121 125 218 56 97 102
184 102 193 0 8 -58 116 -129 238 l-129 223 -274 3 -274 2 -134 -231z"/>
<path d="M3759 5708 c-67 -117 -127 -224 -132 -238 -9 -23 5 -52 113 -240 68
-118 130 -223 138 -233 14 -16 38 -17 281 -15 l266 3 38 64 c126 207 228 396
224 411 -3 10 -62 117 -132 239 l-128 221 -272 0 -273 0 -123 -212z"/>
<path d="M5617 5883 c-13 -21 -74 -127 -137 -236 -104 -181 -112 -200 -101
-223 6 -14 58 -105 115 -202 57 -97 111 -192 120 -209 l17 -33 274 0 274 0 54
93 c146 248 207 359 207 374 0 9 -42 88 -93 177 -52 89 -108 187 -126 219 -18
31 -41 62 -51 67 -11 6 -124 10 -274 10 l-256 0 -23 -37z"/>
<path d="M1187 5393 c-13 -21 -74 -126 -136 -235 -102 -178 -112 -198 -100
-220 48 -92 245 -425 258 -435 11 -10 81 -13 270 -13 141 0 261 4 268 8 12 8
248 409 263 448 6 16 -20 69 -124 250 l-132 229 -272 3 -272 2 -23 -37z"/>
<path d="M2853 5200 c-73 -126 -133 -234 -133 -239 0 -10 243 -435 262 -458 8
-10 75 -13 272 -13 143 0 266 4 272 8 18 11 264 445 264 464 0 9 -58 118 -129
240 l-129 223 -274 3 -273 2 -132 -230z"/>
<path d="M4632 5202 c-73 -126 -132 -234 -132 -241 0 -7 44 -90 99 -184 54
-95 109 -190 122 -212 46 -81 22 -75 314 -75 237 0 263 2 277 18 39 43 260
444 255 461 -2 10 -62 118 -132 240 l-128 221 -271 0 -272 0 -132 -228z"/>
<path d="M6382 5191 c-72 -126 -132 -232 -132 -236 0 -4 59 -111 131 -236
l131 -229 276 2 277 3 73 125 c143 246 182 318 181 336 0 11 -58 118 -128 239
l-127 220 -275 3 -274 2 -133 -229z"/>
<path d="M324 4891 c-16 -18 -235 -393 -256 -437 -8 -18 11 -58 123 -253 l134
-231 272 0 273 0 23 38 c13 20 74 125 136 233 l112 196 -126 219 c-69 120
-133 226 -142 236 -15 16 -39 18 -275 18 -241 0 -259 -1 -274 -19z"/>
<path d="M2087 4873 c-103 -167 -248 -435 -243 -449 3 -9 63 -115 133 -235
l126 -219 273 0 273 0 54 93 c29 50 88 151 130 224 42 73 77 139 77 148 0 17
-231 426 -258 458 -14 15 -40 17 -278 17 l-264 0 -23 -37z"/>
<path d="M3866 4873 c-59 -92 -246 -423 -246 -436 0 -8 48 -97 106 -198 58
-101 117 -203 130 -226 l25 -43 274 0 273 0 127 220 c70 121 129 228 132 238
3 15 -223 426 -259 470 -8 9 -75 12 -274 12 l-264 0 -24 -37z"/>
<path d="M5622 4873 c-31 -44 -252 -434 -252 -444 0 -6 53 -101 117 -212 64
-111 124 -214 132 -229 l16 -28 271 0 272 0 132 227 c87 151 130 235 127 249
-2 12 -61 121 -132 243 l-128 221 -268 0 -268 0 -19 -27z"/>
<path d="M1225 4413 c-14 -3 -60 -73 -152 -233 -73 -126 -133 -232 -133 -235
0 -4 60 -110 133 -236 l132 -229 275 0 275 0 44 78 c25 42 81 140 126 217 45
77 84 147 87 155 6 17 -19 66 -160 308 -67 116 -102 166 -119 173 -23 9 -466
11 -508 2z"/>
<path d="M3000 4413 c-24 -6 -283 -460 -275 -481 3 -9 63 -115 132 -235 l126
-217 275 2 276 3 128 220 c70 121 128 228 128 238 0 10 -57 117 -127 238 -90
157 -134 224 -151 230 -23 9 -481 11 -512 2z"/>
<path d="M4776 4411 c-19 -7 -276 -444 -276 -469 0 -7 24 -55 54 -105 30 -51
88 -150 129 -222 l75 -130 277 0 277 0 129 222 c71 123 129 229 129 237 0 12
-32 70 -216 387 -29 49 -52 79 -67 83 -32 8 -488 6 -511 -3z"/>
<path d="M6497 4373 c-13 -21 -75 -127 -137 -237 l-114 -198 29 -52 c16 -28
65 -114 110 -191 45 -77 92 -159 105 -182 l24 -43 272 0 273 0 40 68 c198 339
223 385 219 406 -5 26 -246 447 -262 458 -6 4 -129 8 -273 8 l-263 0 -23 -37z"/>
<path d="M324 3892 c-19 -12 -264 -447 -264 -468 1 -10 58 -118 128 -239 l128
-220 275 -3 275 -2 132 229 c73 127 132 233 132 237 0 12 -244 434 -263 455
-17 18 -33 19 -275 19 -141 0 -262 -4 -268 -8z"/>
<path d="M2105 3892 c-14 -10 -28 -31 -159 -261 -64 -111 -115 -205 -113 -209
2 -4 61 -109 133 -234 l129 -228 275 0 275 1 125 216 c69 119 128 225 133 236
5 14 -26 76 -124 245 -72 125 -137 230 -143 234 -6 4 -126 8 -266 8 -140 0
-260 -4 -265 -8z"/>
<path d="M3879 3888 c-15 -12 -250 -414 -264 -450 -5 -11 38 -95 126 -248
l134 -230 275 2 275 3 132 230 132 230 -28 50 c-78 143 -236 411 -245 417 -6
4 -126 8 -267 8 -189 0 -259 -3 -270 -12z"/>
<path d="M5623 3878 c-5 -7 -67 -113 -137 -235 l-127 -222 75 -133 c42 -73
102 -178 134 -233 l58 -100 274 0 274 0 133 230 c73 126 133 232 133 235 0 3
-60 109 -133 235 l-134 230 -270 3 c-209 2 -273 -1 -280 -10z"/>
<path d="M1214 3401 c-23 -10 -274 -439 -274 -468 0 -10 58 -117 128 -238
l127 -220 276 -3 275 -2 128 220 c70 121 130 228 132 238 3 13 -141 273 -255
462 -8 13 -50 15 -263 17 -139 1 -262 -2 -274 -6z"/>
<path d="M2984 3402 c-6 -4 -70 -111 -143 -238 l-132 -231 133 -231 133 -232
271 0 c246 0 272 2 286 18 8 9 69 112 136 228 92 160 120 217 115 231 -5 11
-64 117 -133 236 -83 143 -132 218 -145 221 -30 9 -508 7 -521 -2z"/>
<path d="M4775 3403 c-11 -2 -27 -16 -36 -31 -138 -238 -249 -433 -249 -438 0
-3 59 -109 132 -235 l132 -229 273 0 273 0 24 38 c35 56 230 394 238 413 7 19
-229 441 -264 472 -18 15 -45 17 -262 16 -132 -1 -250 -4 -261 -6z"/>
<path d="M6514 3392 c-6 -4 -71 -110 -144 -235 l-132 -229 105 -181 c57 -100
118 -204 134 -232 l29 -50 275 0 274 0 108 185 c59 102 119 207 133 233 l25
48 -134 232 -133 232 -265 2 c-145 2 -269 0 -275 -5z"/>
<path d="M207 2683 c-155 -268 -158 -273 -147 -292 4 -9 65 -113 133 -231
l125 -215 273 0 274 0 102 175 c57 96 117 202 134 235 l31 60 -127 220 c-70
121 -132 226 -137 233 -8 9 -76 12 -278 12 l-268 0 -115 -197z"/>
<path d="M2093 2868 c-5 -7 -67 -113 -137 -235 l-128 -223 134 -232 133 -233
275 0 274 0 58 100 c32 55 92 160 134 232 l76 132 -67 118 c-37 65 -99 171
-137 236 l-69 117 -268 0 c-203 0 -271 -3 -278 -12z"/>
<path d="M3873 2868 c-13 -16 -224 -381 -247 -426 l-17 -34 59 -106 c33 -59
93 -163 134 -232 l74 -125 273 0 273 0 130 225 c72 124 131 232 130 240 0 9
-59 117 -130 240 l-130 225 -270 3 c-208 2 -272 -1 -279 -10z"/>
<path d="M5623 2858 c-12 -15 -221 -376 -247 -426 l-17 -33 59 -102 c33 -56
94 -160 135 -232 l75 -130 272 0 272 0 135 233 134 232 -45 83 c-25 45 -85
150 -133 232 l-88 150 -271 3 c-209 2 -274 -1 -281 -10z"/>
<path d="M1074 2169 c-70 -122 -129 -232 -132 -245 -3 -14 15 -55 51 -116 30
-51 88 -151 130 -223 l74 -130 274 -3 274 -2 59 102 c33 57 93 161 134 231
l75 129 -26 51 c-14 29 -74 135 -134 237 l-109 185 -271 3 -271 2 -128 -221z"/>
<path d="M2907 2263 c-41 -71 -102 -176 -136 -235 l-61 -108 24 -47 c14 -27
74 -131 133 -233 l108 -185 275 0 275 0 88 150 c48 83 108 187 133 233 l46 82
-134 233 -134 232 -271 3 -271 2 -75 -127z"/>
<path d="M4746 2368 c-86 -135 -255 -445 -251 -459 7 -20 241 -426 257 -447 8
-9 73 -12 281 -10 l271 3 134 232 133 232 -136 235 -137 236 -269 0 c-268 0
-269 0 -283 -22z"/>
<path d="M6496 2358 c-16 -27 -150 -259 -213 -371 l-44 -77 127 -221 c70 -121
133 -227 141 -235 12 -12 59 -14 281 -12 l267 3 108 185 c59 102 119 207 133
233 l25 48 -45 82 c-25 45 -85 150 -133 232 l-88 150 -272 3 -272 2 -15 -22z"/>
</g>
</svg>
