<?xml version="1.0" encoding="iso-8859-1"?>
<!-- Uploaded to: SVG Repo, www.svgrepo.com, Generator: SVG Repo Mixer Tools -->
<svg fill="#000000" height="800px" width="800px" version="1.1" id="Layer_1" xmlns="http://www.w3.org/2000/svg" xmlns:xlink="http://www.w3.org/1999/xlink" 
	 viewBox="0 0 512 512" xml:space="preserve">
<g>
	<g>
		<g>
			<polygon points="186.742,241.746 213.234,323.293 298.974,323.293 325.477,241.746 256.11,191.343 			"/>
			<path d="M243.031,354.658h-52.588l-16.027-49.326l-88.929,26.001l-15.682,50.591l-5.834,18.829l-5.625,18.15
				c27.245,33.016,62.541,59.059,102.259,74.992c2.478,0.993,4.966,1.955,7.475,2.865l15.327-11.344l15.849-11.741l43.774-32.42
				V354.658z"/>
			<path d="M256.11,152.577l40.105,29.138l55.839-85.719l-16.289-50.131l-6.064-18.683l-5.896-18.129
				c-14.867-4.036-30.204-6.764-45.886-8.102c-32.567-2.781-64.715,0.575-95.118,9.639l-5.593,18.359l-5.75,18.871l-15.494,50.831
				l58.693,84.046L256.11,152.577z"/>
			<path d="M377.783,113.956l-56.153,86.221l40.722,29.587l-14.271,43.91l89.472,22.969l43.168-31.657l15.85-11.626l15.337-11.249
				c-2.415-45.865-17.062-89.88-42.718-128.155h-19.164h-19.833H377.783z"/>
			<path d="M19.642,300.188L1.838,287.622c4.224,34.679,15.567,68.134,33.633,98.694c0.031,0.052,0.063,0.105,0.094,0.157
				l6.44-20.784l6.89-22.258l5.75-18.547l-15.933-11.239L19.642,300.188z"/>
			<path d="M275.242,480.178l-16.351-11.647l-16.215,12.013l-18.777,13.905l-17.23,12.765c34.647,6.754,70.486,6.357,104.841-1.181
				l-17.365-12.379L275.242,480.178z"/>
			<path d="M108.958,86.241l18.097-0.335l5.321-17.439l6.848-22.478l6.419-21.035c-19.383,9.294-37.711,21.108-54.585,35.327
				c-9.88,8.322-19.028,17.271-27.423,26.785l21.903-0.397L108.958,86.241z"/>
			<path d="M31.739,270.329l44.119,31.134l88.866-25.97l-14.856-45.729l39.415-28.636l-58.61-83.921h-0.01l-52.075,0.951
				l-19.697,0.366l-19.174,0.345C17.855,153.246,4.462,192.608,0.897,234.354c-0.387,4.548-0.659,9.096-0.805,13.633l15.557,10.978
				L31.739,270.329z"/>
			<path d="M375.065,65.31l5.614,17.282h18.348h23.513h21.945c-23.753-25.844-52.065-46.179-83.377-60.209l6.764,20.795
				L375.065,65.31z"/>
			<path d="M445.415,377.564l-16.77-50.821l-90.277-23.178l-16.602,51.093h-47.371v86.409l43.837,31.239l15.944,11.364
				l15.525,11.061c25.656-10.078,49.765-24.412,71.459-42.687c13.539-11.406,25.719-24.004,36.425-37.585l-6.001-18.191
				L445.415,377.564z"/>
			<path d="M474.825,308.217l-15.515,11.375l6.158,18.672l7.35,22.248l6.858,20.795c5.395-9.618,10.173-19.571,14.292-29.775
				c0.408-1.014,0.815-2.039,1.213-3.074c8.144-21.192,13.487-43.597,15.797-66.765l-17.47,12.818L474.825,308.217z"/>
		</g>
	</g>
</g>
</svg>